<?xml version="1.0" encoding="UTF-8" standalone="no"?>
<!-- Created with Inkscape (http://www.inkscape.org/) -->

<svg
   xmlns:dc="http://purl.org/dc/elements/1.1/"
   xmlns:cc="http://creativecommons.org/ns#"
   xmlns:rdf="http://www.w3.org/1999/02/22-rdf-syntax-ns#"
   xmlns:svg="http://www.w3.org/2000/svg"
   xmlns="http://www.w3.org/2000/svg"
   xmlns:sodipodi="http://sodipodi.sourceforge.net/DTD/sodipodi-0.dtd"
   xmlns:inkscape="http://www.inkscape.org/namespaces/inkscape"
   width="182.3555"
   height="47.640121"
   viewBox="0 0 48.248225 12.604782"
   version="1.1"
   id="svg18618"
   inkscape:version="0.92.0 r15299"
   sodipodi:docname="energy northwest.svg">
  <defs
     id="defs18612">
    <clipPath
       id="clipPath17927"
       clipPathUnits="userSpaceOnUse">
      <path
         inkscape:connector-curvature="0"
         id="path17925"
         d="m 13.4,200.074 h 135.266 v 34.231 H 13.4 Z" />
    </clipPath>
    <clipPath
       id="clipPath17935"
       clipPathUnits="userSpaceOnUse">
      <path
         inkscape:connector-curvature="0"
         id="path17933"
         d="M 15.6026,217.029 H 45.7267 V 202.165 H 15.6026 Z" />
    </clipPath>
    <clipPath
       id="clipPath17939"
       clipPathUnits="userSpaceOnUse">
      <path
         inkscape:connector-curvature="0"
         id="path17937"
         d="m 15.602,202.165 h 30.124 v 14.864 H 15.602 Z" />
    </clipPath>
    <clipPath
       id="clipPath17959"
       clipPathUnits="userSpaceOnUse">
      <path
         inkscape:connector-curvature="0"
         id="path17957"
         d="M 15.6026,232.608 H 45.7267 V 217.105 H 15.6026 Z" />
    </clipPath>
    <clipPath
       id="clipPath17963"
       clipPathUnits="userSpaceOnUse">
      <path
         inkscape:connector-curvature="0"
         id="path17961"
         d="m 15.602,217.105 h 30.124 v 15.503 H 15.602 Z" />
    </clipPath>
    <clipPath
       id="clipPath17983"
       clipPathUnits="userSpaceOnUse">
      <path
         inkscape:connector-curvature="0"
         id="path17981"
         d="M 15.6026,217.356 H 45.7267 V 201.852 H 15.6026 Z" />
    </clipPath>
    <clipPath
       id="clipPath17987"
       clipPathUnits="userSpaceOnUse">
      <path
         inkscape:connector-curvature="0"
         id="path17985"
         d="m 15.602,201.852 h 30.124 v 15.504 H 15.602 Z" />
    </clipPath>
    <clipPath
       id="clipPath18011"
       clipPathUnits="userSpaceOnUse">
      <path
         inkscape:connector-curvature="0"
         id="path18009"
         d="M 15.6026,232.555 H 45.7267 V 216.029 H 15.6026 Z" />
    </clipPath>
    <clipPath
       id="clipPath18015"
       clipPathUnits="userSpaceOnUse">
      <path
         inkscape:connector-curvature="0"
         id="path18013"
         d="m 15.602,216.03 h 30.124 v 16.525 H 15.602 Z" />
    </clipPath>
    <clipPath
       id="clipPath17899"
       clipPathUnits="userSpaceOnUse">
      <path
         inkscape:connector-curvature="0"
         id="path17897"
         d="m 13.4,217.19 c 0,-9.453 7.664,-17.116 17.116,-17.116 v 0 c 9.453,0 17.116,7.663 17.116,17.116 v 0 c 0,9.453 -7.663,17.115 -17.116,17.115 v 0 c -9.452,0 -17.116,-7.662 -17.116,-17.115" />
    </clipPath>
    <clipPath
       id="clipPath17909"
       clipPathUnits="userSpaceOnUse">
      <path
         inkscape:connector-curvature="0"
         id="path17907"
         d="m 13.400088,200.07491 h 34.23158 v 34.23018 h -34.23158 z" />
    </clipPath>
    <radialGradient
       id="radialGradient17917"
       spreadMethod="pad"
       gradientTransform="matrix(17.114395,0,0,17.114044,30.519104,217.19392)"
       gradientUnits="userSpaceOnUse"
       r="1"
       cy="0"
       cx="0"
       fy="0"
       fx="0">
      <stop
         id="stop17911"
         offset="0"
         style="stop-opacity:1;stop-color:#e6f3ee" />
      <stop
         id="stop17913"
         offset="0.595505"
         style="stop-opacity:1;stop-color:#79c8a7" />
      <stop
         id="stop17915"
         offset="1"
         style="stop-opacity:1;stop-color:#00ab66" />
    </radialGradient>
    <clipPath
       id="clipPath17835"
       clipPathUnits="userSpaceOnUse">
      <path
         inkscape:connector-curvature="0"
         id="path17833"
         d="m 13.4,200.074 h 135.266 v 34.231 H 13.4 Z" />
    </clipPath>
  </defs>
  <sodipodi:namedview
     id="base"
     pagecolor="#ffffff"
     bordercolor="#666666"
     borderopacity="1.0"
     inkscape:pageopacity="0.0"
     inkscape:pageshadow="2"
     inkscape:zoom="4.4467967"
     inkscape:cx="90.177273"
     inkscape:cy="22.820059"
     inkscape:document-units="mm"
     inkscape:current-layer="layer1"
     showgrid="false"
     fit-margin-top="0"
     fit-margin-left="0"
     fit-margin-right="0"
     fit-margin-bottom="0"
     units="px"
     inkscape:window-width="1280"
     inkscape:window-height="744"
     inkscape:window-x="-4"
     inkscape:window-y="-4"
     inkscape:window-maximized="1" />
  <metadata
     id="metadata18615">
    <rdf:RDF>
      <cc:Work
         rdf:about="">
        <dc:format>image/svg+xml</dc:format>
        <dc:type
           rdf:resource="http://purl.org/dc/dcmitype/StillImage" />
        <dc:title></dc:title>
      </cc:Work>
    </rdf:RDF>
  </metadata>
  <g
     inkscape:label="Layer 1"
     inkscape:groupmode="layer"
     id="layer1"
     transform="translate(-72.146549,-193.67112)">
    <g
       id="g19067"
       transform="translate(0.26458234,-0.26458094)">
      <path
         d="m 85.483104,204.60951 h 0.972608 l -0.03387,-2.71216 h 0.01094 l 1.388533,2.71216 h 1.313039 v -3.9691 h -0.966611 l 0.01764,2.69522 h -0.01164 l -1.343025,-2.69522 h -1.347611 z"
         style="fill:#003568;fill-opacity:1;fill-rule:nonzero;stroke:none;stroke-width:0.35277778"
         id="path17827"
         inkscape:connector-curvature="0" />
      <path
         d="m 90.618738,202.62455 c 0,-0.68792 0.256469,-1.26788 0.900289,-1.26788 0.642055,0 0.898172,0.57996 0.898172,1.26788 0,0.65405 -0.256117,1.26894 -0.898172,1.26894 -0.64382,0 -0.900289,-0.61489 -0.900289,-1.26894 m -1.090789,0 c 0,1.2633 0.693561,2.05317 1.991078,2.05317 1.296458,0 1.990019,-0.78987 1.990019,-2.05317 0,-1.27388 -0.682977,-2.05352 -1.990019,-2.05352 -1.308806,0 -1.991078,0.77964 -1.991078,2.05352"
         style="fill:#003568;fill-opacity:1;fill-rule:evenodd;stroke:none;stroke-width:0.35277778"
         id="path17839"
         inkscape:connector-curvature="0" />
      <path
         d="m 95.028249,201.39057 h 0.279047 c 0.403931,0 0.772936,0.0677 0.772936,0.43815 0,0.44873 -0.432152,0.46073 -0.772936,0.46073 h -0.279047 z m -1.057275,3.2191 h 1.057275 v -1.56951 h 0.222603 c 0.391936,0 0.528108,0.17004 0.744361,0.85302 l 0.227894,0.71649 h 1.102078 l -0.386644,-1.08056 c -0.197556,-0.48331 -0.221545,-0.78493 -0.561975,-0.87524 v -0.0113 c 0.511527,-0.121 0.761647,-0.47272 0.761647,-1.0026 0,-0.68121 -0.57397,-0.99977 -1.279878,-0.99977 h -1.887361 z"
         style="fill:#003568;fill-opacity:1;fill-rule:evenodd;stroke:none;stroke-width:0.35277778"
         id="path17843"
         inkscape:connector-curvature="0" />
      <path
         d="m 98.37364,204.60952 h 1.058333 v -3.18523 h 0.978607 v -0.78387 h -3.014134 v 0.78387 h 0.977194 z"
         style="fill:#003568;fill-opacity:1;fill-rule:nonzero;stroke:none;stroke-width:0.35277778"
         id="path17847"
         inkscape:connector-curvature="0" />
      <path
         d="m 100.86658,204.60952 h 1.05692 v -1.70004 h 1.25236 v 1.70004 h 1.05728 v -3.9691 h -1.05728 v 1.51729 h -1.25236 v -1.51729 h -1.05692 z"
         style="fill:#003568;fill-opacity:1;fill-rule:nonzero;stroke:none;stroke-width:0.35277778"
         id="path17851"
         inkscape:connector-curvature="0" />
      <path
         d="m 105.54226,204.60952 h 1.37019 l 0.52317,-3.04871 h 0.0113 l 0.56338,3.04871 h 1.35926 l 0.88758,-3.9691 h -1.02975 l -0.51612,3.04729 h -0.012 l -0.55845,-3.04729 h -1.34232 l -0.53446,3.04729 h -0.0113 l -0.51188,-3.04729 h -1.08055 z"
         style="fill:#003568;fill-opacity:1;fill-rule:nonzero;stroke:none;stroke-width:0.35277778"
         id="path17855"
         inkscape:connector-curvature="0" />
      <path
         d="m 110.65782,204.60952 h 2.85997 v -0.75036 h -1.80199 v -0.89923 h 1.6443 v -0.75071 h -1.6443 v -0.8188 h 1.73919 v -0.75 h -2.79717 z"
         style="fill:#003568;fill-opacity:1;fill-rule:nonzero;stroke:none;stroke-width:0.35277778"
         id="path17859"
         inkscape:connector-curvature="0" />
      <path
         d="m 113.86598,204.50697 c 0.35242,0.1143 0.8128,0.17039 1.18216,0.17039 0.8823,0 1.7466,-0.27834 1.7466,-1.30775 0,-1.43298 -1.87642,-1.00153 -1.87642,-1.64359 0,-0.34678 0.44273,-0.36936 0.71049,-0.36936 0.30163,0 0.60854,0.0572 0.88089,0.18169 l 0.0691,-0.81951 c -0.26705,-0.0907 -0.64276,-0.14781 -1.02305,-0.14781 -0.79728,0 -1.73038,0.26247 -1.73038,1.21814 0,1.44392 1.87748,0.97755 1.87748,1.71697 0,0.31856 -0.3182,0.387 -0.65475,0.387 -0.4378,0 -0.8188,-0.11395 -1.09079,-0.26141 z"
         style="fill:#003568;fill-opacity:1;fill-rule:nonzero;stroke:none;stroke-width:0.35277778"
         id="path17863"
         inkscape:connector-curvature="0" />
      <path
         d="m 117.83008,204.60952 h 1.05833 v -3.18523 h 0.9772 v -0.78387 h -3.01308 v 0.78387 h 0.97755 z"
         style="fill:#003568;fill-opacity:1;fill-rule:nonzero;stroke:none;stroke-width:0.35277778"
         id="path17867"
         inkscape:connector-curvature="0" />
      <path
         d="m 85.436927,199.83679 h 2.86138 v -0.75177 h -1.802341 v -0.89782 h 1.642886 v -0.75177 h -1.642886 v -0.81809 h 1.739194 v -0.75071 h -2.798233 z"
         style="fill:#003568;fill-opacity:1;fill-rule:nonzero;stroke:none;stroke-width:0.35277778"
         id="path17871"
         inkscape:connector-curvature="0" />
      <path
         d="m 88.855767,199.83679 h 0.974019 l -0.03457,-2.71321 h 0.01094 l 1.388181,2.71321 h 1.313391 v -3.97016 H 91.54147 l 0.01693,2.69593 h -0.01199 l -1.341261,-2.69593 h -1.349375 z"
         style="fill:#003568;fill-opacity:1;fill-rule:nonzero;stroke:none;stroke-width:0.35277778"
         id="path17875"
         inkscape:connector-curvature="0" />
      <path
         d="m 92.963017,199.83679 h 2.862439 v -0.75177 H 94.02135 v -0.89782 h 1.643239 v -0.75177 H 94.02135 v -0.81809 h 1.740606 v -0.75071 h -2.798939 z"
         style="fill:#003568;fill-opacity:1;fill-rule:nonzero;stroke:none;stroke-width:0.35277778"
         id="path17879"
         inkscape:connector-curvature="0" />
      <path
         d="m 97.2807,196.61748 h 0.2794 c 0.403931,0 0.772936,0.0677 0.772936,0.4378 0,0.44908 -0.4318,0.46037 -0.772936,0.46037 h -0.2794 z m -1.057628,3.21945 H 97.2807 v -1.56986 h 0.22225 c 0.391936,0 0.528461,0.1711 0.744714,0.85302 l 0.227894,0.71684 h 1.103136 l -0.386997,-1.08091 c -0.198614,-0.48331 -0.220839,-0.78528 -0.563386,-0.87595 v -0.0113 c 0.513292,-0.11994 0.763411,-0.47201 0.763411,-1.00153 0,-0.68263 -0.574675,-1.00083 -1.279525,-1.00083 h -1.889125 z"
         style="fill:#003568;fill-opacity:1;fill-rule:evenodd;stroke:none;stroke-width:0.35277778"
         id="path17883"
         inkscape:connector-curvature="0" />
      <path
         d="m 103.442,197.51573 h -1.64324 v 0.75142 h 0.61948 v 0.78422 c -0.0967,0.0455 -0.23283,0.0688 -0.375,0.0688 -0.77329,0 -1.32468,-0.47237 -1.32468,-1.2513 0,-0.9278 0.70449,-1.28446 1.56351,-1.28446 0.25082,0 0.63676,0.0614 0.96767,0.25364 l 0.0847,-0.86289 c -0.38699,-0.14817 -0.93839,-0.17639 -1.20015,-0.17639 -1.45556,0 -2.508247,0.57397 -2.508247,2.0701 0,1.50107 1.223077,2.03553 2.280357,2.03553 0.36407,0 0.86536,-0.0106 1.53564,-0.18168 z"
         style="fill:#003568;fill-opacity:1;fill-rule:nonzero;stroke:none;stroke-width:0.35277778"
         id="path17887"
         inkscape:connector-curvature="0" />
      <path
         d="m 105.03091,199.83679 h 1.05692 v -1.49648 l 1.45662,-2.47368 h -1.21708 l -0.76765,1.59209 -0.77999,-1.59209 h -1.21743 l 1.46861,2.47368 z"
         style="fill:#003568;fill-opacity:1;fill-rule:nonzero;stroke:none;stroke-width:0.35277778"
         id="path17891"
         inkscape:connector-curvature="0" />
      <g
         transform="matrix(0.35277777,0,0,-0.35277777,67.419296,276.85788)"
         id="g17903">
        <g
           id="g17905"
           clip-path="url(#clipPath17909)">
          <path
             d="m 13.4,217.19 c 0,-9.453 7.664,-17.116 17.116,-17.116 v 0 c 9.453,0 17.116,7.663 17.116,17.116 v 0 c 0,9.453 -7.663,17.115 -17.116,17.115 v 0 c -9.452,0 -17.116,-7.662 -17.116,-17.115"
             style="fill:url(#radialGradient17917);stroke:none"
             id="path17919"
             inkscape:connector-curvature="0" />
        </g>
      </g>
      <g
         transform="matrix(0.35277777,0,0,-0.35277777,67.419296,276.85788)"
         id="g17931" />
      <g
         transform="matrix(0.35277777,0,0,-0.35277777,67.419296,276.85788)"
         id="g17951">
        <g
           clip-path="url(#clipPath17935)"
           id="g17949"
           style="opacity:0.39999396">
          <g
             id="g17947">
            <g
               clip-path="url(#clipPath17939)"
               id="g17945">
              <g
                 transform="translate(30.6647,208.6722)"
                 id="g17943">
                <path
                   d="m 0,0 c -8.084,0 -14.68,0.493 -15.045,8.07 -0.009,-0.226 -0.017,0.47 -0.017,0.24 0,-9.418 6.743,-14.817 15.062,-14.817 8.318,0 15.062,5.399 15.062,14.817 0,0.23 -0.007,-0.466 -0.018,-0.24 C 14.679,0.493 8.085,0 0,0"
                   style="fill:#00ab66;fill-opacity:1;fill-rule:nonzero;stroke:none"
                   id="path17941"
                   inkscape:connector-curvature="0" />
              </g>
            </g>
          </g>
        </g>
      </g>
      <g
         transform="matrix(0.35277777,0,0,-0.35277777,67.419296,276.85788)"
         id="g17955" />
      <g
         transform="matrix(0.35277777,0,0,-0.35277777,67.419296,276.85788)"
         id="g17975">
        <g
           clip-path="url(#clipPath17959)"
           id="g17973"
           style="opacity:0.5">
          <g
             id="g17971">
            <g
               clip-path="url(#clipPath17963)"
               id="g17969">
              <g
                 transform="translate(30.6647,230.7211)"
                 id="g17967">
                <path
                   d="m 0,0 c 8.085,0 14.679,-6.038 15.044,-13.616 0.011,0.227 0.018,0.456 0.018,0.687 0,8.181 -6.744,14.816 -15.062,14.816 -8.319,0 -15.062,-6.635 -15.062,-14.816 0,-0.231 0.008,-0.46 0.017,-0.687 C -14.68,-6.038 -8.084,0 0,0"
                   style="fill:#ffffff;fill-opacity:1;fill-rule:nonzero;stroke:none"
                   id="path17965"
                   inkscape:connector-curvature="0" />
              </g>
            </g>
          </g>
        </g>
      </g>
      <g
         transform="matrix(0.35277777,0,0,-0.35277777,67.419296,276.85788)"
         id="g17979" />
      <g
         transform="matrix(0.35277777,0,0,-0.35277777,67.419296,276.85788)"
         id="g17999">
        <g
           clip-path="url(#clipPath17983)"
           id="g17997"
           style="opacity:0.5">
          <g
             id="g17995">
            <g
               clip-path="url(#clipPath17987)"
               id="g17993">
              <g
                 transform="translate(30.6647,203.7382)"
                 id="g17991">
                <path
                   d="m 0,0 c -8.084,0 -14.68,6.038 -15.045,13.618 -0.009,-0.228 -0.017,-0.456 -0.017,-0.687 0,-8.182 6.743,-14.817 15.062,-14.817 8.318,0 15.062,6.635 15.062,14.817 0,0.231 -0.007,0.459 -0.018,0.687 C 14.679,6.038 8.085,0 0,0"
                   style="fill:#00b25a;fill-opacity:1;fill-rule:nonzero;stroke:none"
                   id="path17989"
                   inkscape:connector-curvature="0" />
              </g>
            </g>
          </g>
        </g>
      </g>
      <path
         d="m 73.637886,196.19231 c 0,0 2.445103,3.24802 3.000022,3.98568 -0.531636,0.28258 -2.424641,1.29011 -2.424641,1.29011 0,0 2.232377,0.60607 2.766483,0.75177 -0.102306,0.54575 -0.52952,2.82575 -0.52952,2.82575 0,0 1.864784,-1.3723 2.311048,-1.70074 0.360891,0.42016 1.871486,2.1777 1.871486,2.1777 0,0 0.09313,-2.31881 0.115358,-2.87373 0.553155,-0.0212 2.86385,-0.11042 2.86385,-0.11042 0,0 -1.74872,-1.51941 -2.166761,-1.88242 0.32773,-0.44697 1.698978,-2.31634 1.698978,-2.31634 0,0 -2.2733,0.4251 -2.817284,0.52705 -0.143933,-0.53622 -0.745419,-2.77707 -0.745419,-2.77707 0,0 -1.006828,1.89865 -1.289403,2.43099 -0.73413,-0.55703 -3.970866,-3.01378 -3.970866,-3.01378 z"
         style="fill:#aad8b0;fill-opacity:1;fill-rule:nonzero;stroke:none;stroke-width:0.35277778"
         id="path18003"
         inkscape:connector-curvature="0" />
      <g
         transform="matrix(0.35277777,0,0,-0.35277777,67.419296,276.85788)"
         id="g18007" />
      <g
         transform="matrix(0.35277777,0,0,-0.35277777,67.419296,276.85788)"
         id="g18027">
        <g
           clip-path="url(#clipPath18011)"
           id="g18025"
           style="opacity:0.30000299">
          <g
             id="g18023">
            <g
               clip-path="url(#clipPath18015)"
               id="g18021">
              <g
                 transform="translate(30.6647,216.0293)"
                 id="g18019">
                <path
                   d="m 0,0 c 8.085,0 14.679,9.181 15.044,1.232 0.011,0.237 0.018,-0.492 0.018,-0.25 0,9.876 -6.744,15.543 -15.062,15.543 -8.319,0 -15.062,-5.667 -15.062,-15.543 0,-0.242 0.008,0.487 0.017,0.25 C -14.68,9.181 -8.084,0 0,0"
                   style="fill:#ffffff;fill-opacity:1;fill-rule:nonzero;stroke:none"
                   id="path18017"
                   inkscape:connector-curvature="0" />
              </g>
            </g>
          </g>
        </g>
      </g>
      <path
         d="m 78.453832,199.25742 0.9779,-1.84326 0.541514,2.01647 2.045758,-0.38276 -1.234016,1.6824 1.573741,1.36666 -2.079978,0.0808 -0.08361,2.08633 -1.359253,-1.58115 -1.678164,1.23508 0.384528,-2.05246 -2.009069,-0.5461 1.83903,-0.97826 -3.345391,-4.44394 z"
         style="fill:#ffffff;fill-opacity:1;fill-rule:nonzero;stroke:none;stroke-width:0.35277778"
         id="path18031"
         inkscape:connector-curvature="0" />
    </g>
  </g>
</svg>
