<svg xmlns="http://www.w3.org/2000/svg" xmlns:xlink="http://www.w3.org/1999/xlink" viewBox="0 0 162.74 57" class="hmis">
    <defs>
        <style>
            svg.hmis .cls-1 {
                fill: #5ca446;
            }

            svg.hmis .cls-2 {
                fill: #4077a2;
            }

            svg.hmis .cls-3 {
                fill: url(#HMIS-logo-linear-gradient);
            }

            svg.hmis .cls-4 {
                fill: url(#HMIS-logo-linear-gradient-2);
            }

            svg.hmis .cls-5 {
                fill: url(#HMIS-logo-linear-gradient-3);
            }

            svg.hmis .cls-6 {
                fill: url(#HMIS-logo-linear-gradient-4);
            }

            svg.hmis .cls-7 {
                fill: url(#HMIS-logo-linear-gradient-5);
            }

            svg.hmis .cls-8 {
                fill: url(#HMIS-logo-linear-gradient-6);
            }

            svg.hmis .cls-9 {
                fill: url(#HMIS-logo-linear-gradient-7);
            }

            svg.hmis .cls-10 {
                fill: url(#HMIS-logo-linear-gradient-8);
            }

            svg.hmis .cls-11 {
                fill: url(#HMIS-logo-linear-gradient-9);
            }

            svg.hmis .cls-12 {
                fill: url(#HMIS-logo-linear-gradient-10);
            }

            svg.hmis .cls-13 {
                fill: url(#HMIS-logo-linear-gradient-11);
            }
        </style>
        <linearGradient id="HMIS-logo-linear-gradient" x1="46.89" y1="1.4" x2="46.89" y2="44.75" gradientUnits="userSpaceOnUse">
            <stop offset="0" stop-color="#4077a2" />
            <stop offset="1" stop-color="#244a68" />
        </linearGradient>
        <linearGradient id="HMIS-logo-linear-gradient-2" x1="95" y1="1.8" x2="95" y2="45.18" gradientUnits="userSpaceOnUse">
            <stop offset="0" stop-color="#0696b7" />
            <stop offset="1" stop-color="#057993" />
        </linearGradient>
        <linearGradient id="HMIS-logo-linear-gradient-3" x1="6.09" y1="44.75" x2="6.09" y2="32.61" gradientUnits="userSpaceOnUse">
            <stop offset="0.01" stop-color="#2d803b" />
            <stop offset="1" stop-color="#216e31" />
        </linearGradient>
        <linearGradient id="HMIS-logo-linear-gradient-4" x1="119.59" y1="6" x2="162.42" y2="6" gradientUnits="userSpaceOnUse">
            <stop offset="0" stop-color="#5ca446" />
            <stop offset="1" stop-color="#4f903c" />
        </linearGradient>
        <linearGradient id="HMIS-logo-linear-gradient-5" x1="110.25" y1="1.41" x2="110.25" y2="10.73"
            gradientUnits="userSpaceOnUse">
            <stop offset="0" stop-color="#1e95b1" />
            <stop offset="1" stop-color="#52879b" />
        </linearGradient>
        <linearGradient id="HMIS-logo-linear-gradient-6" x1="110.25" y1="20.28" x2="110.25" y2="44.94"
            xlink:href="#HMIS-logo-linear-gradient" />
        <linearGradient id="HMIS-logo-linear-gradient-7" x1="5.75" y1="24.93" x2="36.24" y2="24.93"
            xlink:href="#HMIS-logo-linear-gradient-4" />
        <linearGradient id="HMIS-logo-linear-gradient-8" x1="6.09" y1="1.4" x2="5.73" y2="24.08" gradientUnits="userSpaceOnUse">
            <stop offset="0.02" stop-color="#2d803b" />
            <stop offset="1" stop-color="#216e31" />
        </linearGradient>
        <linearGradient id="HMIS-logo-linear-gradient-9" x1="126.09" y1="30.76" x2="161.21" y2="30.76"
            xlink:href="#HMIS-logo-linear-gradient-3" />
        <linearGradient id="HMIS-logo-linear-gradient-10" x1="57.62" y1="11.82" x2="73.75" y2="30.99"
            xlink:href="#HMIS-logo-linear-gradient-2" />
        <linearGradient id="HMIS-logo-linear-gradient-11" x1="-1230.63" y1="11.8" x2="-1214.47" y2="31.01"
            gradientTransform="matrix(-1, 0, 0, 1, -1142.84, 0)" xlink:href="#HMIS-logo-linear-gradient" />
    </defs>
    <g id="HMIS-logo-Layer_2" data-name="Layer 2">
        <g id="HMIS-logo-Layer_2-2" data-name="Layer 2">
            <path class="cls-1" d="M.72,51.31v2.34H3.43V51.31h.73v5.6H3.43V54.28H.72v2.63H0v-5.6Z" />
            <path class="cls-1"
                d="M6.32,55.15l-.58,1.76H5l1.9-5.6h.87l1.91,5.6H8.9l-.6-1.76Zm1.83-.57L7.6,53c-.12-.36-.2-.7-.29-1h0c-.09.33-.18.67-.29,1l-.54,1.62Z" />
            <path class="cls-1"
                d="M10.49,56.91v-5.6h.79l1.79,2.83a16.47,16.47,0,0,1,1,1.82h0C14,55.2,14,54.52,14,53.65V51.31h.68v5.6H14l-1.77-2.84a16.85,16.85,0,0,1-1-1.87h0c0,.7.05,1.38.05,2.31v2.39Z" />
            <path class="cls-1" d="M16,51.31h3v.61H16.68v1.86h2.11v.59H16.68v2.54H16Z" />
            <path class="cls-1"
                d="M24.78,54.05c0,1.93-1.17,3-2.6,3a2.56,2.56,0,0,1-2.51-2.84,2.65,2.65,0,0,1,2.59-2.94A2.55,2.55,0,0,1,24.78,54.05Zm-4.34.09c0,1.2.65,2.27,1.78,2.27S24,55.35,24,54.08c0-1.11-.58-2.27-1.78-2.27S20.44,52.91,20.44,54.14Z" />
            <path class="cls-1"
                d="M25.72,51.39a7,7,0,0,1,1.38-.12,2.26,2.26,0,0,1,1.62.46,1.4,1.4,0,0,1,.44,1.06,1.47,1.47,0,0,1-1.05,1.43v0a1.39,1.39,0,0,1,.82,1.13,8.58,8.58,0,0,0,.43,1.54h-.75a7.75,7.75,0,0,1-.37-1.34c-.17-.77-.46-1.06-1.12-1.09h-.68v2.43h-.72Zm.72,2.54h.74c.77,0,1.26-.42,1.26-1.06s-.52-1-1.29-1a3.25,3.25,0,0,0-.71.06Z" />
            <path class="cls-1"
                d="M30.18,51.39a9.93,9.93,0,0,1,1.54-.12A3.15,3.15,0,0,1,34,52a2.56,2.56,0,0,1,.79,2,3,3,0,0,1-.8,2.17,3.47,3.47,0,0,1-2.48.81,12,12,0,0,1-1.31-.07Zm.73,4.94a3.84,3.84,0,0,0,.73,0A2.15,2.15,0,0,0,34,54a2,2,0,0,0-2.27-2.16,4.08,4.08,0,0,0-.84.08Z" />
            <path class="cls-2"
                d="M44,54.45c-.05-.78-.1-1.72-.09-2.42h0c-.19.66-.43,1.36-.71,2.13l-1,2.71H41.6l-.91-2.66c-.26-.79-.49-1.51-.64-2.18h0c0,.7-.06,1.64-.11,2.48l-.15,2.4h-.69l.39-5.6h.92l1,2.71c.23.69.42,1.3.56,1.88h0c.14-.56.34-1.18.59-1.88l1-2.71h.92l.35,5.6h-.7Z" />
            <path class="cls-2" d="M46.63,51.31v5.6h-.72v-5.6Z" />
            <path class="cls-2"
                d="M47.79,56a2.55,2.55,0,0,0,1.3.36c.73,0,1.17-.39,1.17-1s-.3-.82-1.06-1.11c-.91-.33-1.48-.8-1.48-1.59a1.62,1.62,0,0,1,1.81-1.52,2.56,2.56,0,0,1,1.24.27l-.2.59a2.24,2.24,0,0,0-1.06-.26c-.77,0-1.06.45-1.06.84s.34.78,1.12,1.08c.94.36,1.42.82,1.42,1.64S50.35,57,49,57a2.89,2.89,0,0,1-1.43-.36Z" />
            <path class="cls-2"
                d="M51.88,56a2.58,2.58,0,0,0,1.3.36c.74,0,1.17-.39,1.17-1s-.3-.82-1.06-1.11-1.47-.8-1.47-1.59a1.61,1.61,0,0,1,1.81-1.52,2.54,2.54,0,0,1,1.23.27l-.2.59a2.2,2.2,0,0,0-1.06-.26c-.76,0-1.05.45-1.05.84s.34.78,1.11,1.08c1,.36,1.43.82,1.43,1.64s-.64,1.61-2,1.61a2.89,2.89,0,0,1-1.43-.36Z" />
            <path class="cls-2" d="M56.8,51.31v5.6h-.72v-5.6Z" />
            <path class="cls-2"
                d="M62.84,54.05c0,1.93-1.17,3-2.6,3a2.56,2.56,0,0,1-2.51-2.84,2.66,2.66,0,0,1,2.6-2.94A2.55,2.55,0,0,1,62.84,54.05Zm-4.34.09c0,1.2.65,2.27,1.78,2.27s1.8-1.06,1.8-2.33c0-1.11-.58-2.27-1.79-2.27S58.5,52.91,58.5,54.14Z" />
            <path class="cls-2"
                d="M63.78,56.91v-5.6h.79l1.79,2.83a16.28,16.28,0,0,1,1,1.82h0c-.07-.75-.08-1.43-.08-2.3V51.31H68v5.6h-.73l-1.78-2.84a16.73,16.73,0,0,1-1-1.87h0c0,.7.06,1.38.06,2.31v2.39Z" />
            <path class="cls-2" d="M73.48,51.31v5.6h-.72v-5.6Z" />
            <path class="cls-2"
                d="M74.74,56.91v-5.6h.79l1.8,2.83a18.08,18.08,0,0,1,1,1.82h0c-.07-.75-.09-1.43-.09-2.3V51.31h.68v5.6h-.73l-1.77-2.84a16.85,16.85,0,0,1-1-1.87h0c0,.7.06,1.38.06,2.31v2.39Z" />
            <path class="cls-2" d="M81.27,51.93h-1.7v-.62h4.14v.62H82v5h-.73Z" />
            <path class="cls-2" d="M87.23,54.28H85.05v2h2.43v.61H84.33v-5.6h3v.61h-2.3v1.77h2.18Z" />
            <path class="cls-2"
                d="M92.67,56.66A5.37,5.37,0,0,1,91,57a2.63,2.63,0,0,1-2.88-2.82,2.81,2.81,0,0,1,3-2.89,3.58,3.58,0,0,1,1.4.26l-.18.59a2.89,2.89,0,0,0-1.23-.24,2.1,2.1,0,0,0-2.25,2.25A2.05,2.05,0,0,0,91,56.37a2.42,2.42,0,0,0,1-.15V54.55H90.83V54h1.84Z" />
            <path class="cls-2"
                d="M93.78,51.39a7.05,7.05,0,0,1,1.39-.12,2.23,2.23,0,0,1,1.61.46,1.37,1.37,0,0,1,.44,1.06,1.47,1.47,0,0,1-1,1.43v0A1.39,1.39,0,0,1,97,55.37a9.56,9.56,0,0,0,.43,1.54h-.74a6.64,6.64,0,0,1-.38-1.34c-.16-.77-.46-1.06-1.12-1.09H94.5v2.43h-.72Zm.72,2.54h.74c.77,0,1.26-.42,1.26-1.06s-.52-1-1.28-1a3.36,3.36,0,0,0-.72.06Z" />
            <path class="cls-2"
                d="M99.19,55.15l-.58,1.76h-.75l1.9-5.6h.88l1.9,5.6h-.77l-.59-1.76Zm1.84-.57L100.48,53a10.08,10.08,0,0,1-.29-1h0c-.08.33-.17.67-.28,1l-.55,1.62Z" />
            <path class="cls-2" d="M103.79,51.93h-1.7v-.62h4.14v.62h-1.71v5h-.73Z" />
            <path class="cls-2" d="M107.58,51.31v5.6h-.73v-5.6Z" />
            <path class="cls-2"
                d="M113.62,54.05c0,1.93-1.17,3-2.6,3a2.56,2.56,0,0,1-2.51-2.84,2.65,2.65,0,0,1,2.59-2.94A2.55,2.55,0,0,1,113.62,54.05Zm-4.34.09c0,1.2.65,2.27,1.78,2.27s1.8-1.06,1.8-2.33c0-1.11-.59-2.27-1.79-2.27S109.28,52.91,109.28,54.14Z" />
            <path class="cls-2"
                d="M114.56,56.91v-5.6h.79l1.79,2.83a16.28,16.28,0,0,1,1,1.82h0c-.07-.75-.08-1.43-.08-2.3V51.31h.68v5.6H118l-1.78-2.84a16.73,16.73,0,0,1-1-1.87h0c0,.7.06,1.38.06,2.31v2.39Z" />
            <path class="cls-1"
                d="M123.44,56a2.54,2.54,0,0,0,1.29.36c.74,0,1.18-.39,1.18-1s-.3-.82-1.06-1.11-1.48-.8-1.48-1.59a1.62,1.62,0,0,1,1.81-1.52,2.56,2.56,0,0,1,1.24.27l-.2.59a2.24,2.24,0,0,0-1.06-.26c-.77,0-1.06.45-1.06.84s.34.78,1.12,1.08c.94.36,1.42.82,1.42,1.64S126,57,124.69,57a2.89,2.89,0,0,1-1.43-.36Z" />
            <path class="cls-1"
                d="M132.41,54.05c0,1.93-1.17,3-2.6,3a2.57,2.57,0,0,1-2.51-2.84,2.66,2.66,0,0,1,2.6-2.94A2.54,2.54,0,0,1,132.41,54.05Zm-4.34.09c0,1.2.65,2.27,1.79,2.27s1.79-1.06,1.79-2.33c0-1.11-.58-2.27-1.79-2.27S128.07,52.91,128.07,54.14Z" />
            <path class="cls-1" d="M133.35,51.31h.72v5h2.39v.61h-3.11Z" />
            <path class="cls-1"
                d="M137.69,51.31v3.31c0,1.26.56,1.79,1.31,1.79s1.36-.55,1.36-1.79V51.31h.73v3.26c0,1.72-.91,2.43-2.12,2.43s-2-.66-2-2.39v-3.3Z" />
            <path class="cls-1" d="M143.4,51.93h-1.7v-.62h4.14v.62h-1.71v5h-.73Z" />
            <path class="cls-1" d="M147.19,51.31v5.6h-.72v-5.6Z" />
            <path class="cls-1"
                d="M153.23,54.05c0,1.93-1.17,3-2.6,3a2.57,2.57,0,0,1-2.51-2.84,2.66,2.66,0,0,1,2.6-2.94A2.55,2.55,0,0,1,153.23,54.05Zm-4.34.09c0,1.2.65,2.27,1.79,2.27s1.79-1.06,1.79-2.33c0-1.11-.58-2.27-1.79-2.27S148.89,52.91,148.89,54.14Z" />
            <path class="cls-1"
                d="M154.17,56.91v-5.6H155l1.79,2.83a16.47,16.47,0,0,1,1,1.82h0c-.06-.75-.08-1.43-.08-2.3V51.31h.68v5.6h-.73l-1.78-2.84a16.73,16.73,0,0,1-1-1.87h0c.05.7.06,1.38.06,2.31v2.39Z" />
            <path class="cls-1"
                d="M159.53,56a2.58,2.58,0,0,0,1.3.36c.74,0,1.17-.39,1.17-1s-.3-.82-1.06-1.11c-.91-.33-1.47-.8-1.47-1.59a1.61,1.61,0,0,1,1.81-1.52,2.54,2.54,0,0,1,1.23.27l-.2.59a2.2,2.2,0,0,0-1.06-.26c-.76,0-1.05.45-1.05.84s.34.78,1.11,1.08c.95.36,1.43.82,1.43,1.64s-.64,1.61-2,1.61a2.89,2.89,0,0,1-1.43-.36Z" />
            <path class="cls-3"
                d="M41,0H52.79a0,0,0,0,1,0,0V46.08a0,0,0,0,1,0,0h0A11.81,11.81,0,0,1,41,34.27V0A0,0,0,0,1,41,0Z" />
            <path class="cls-4"
                d="M89.09,0H100.9a0,0,0,0,1,0,0V46.08a0,0,0,0,1,0,0h0A11.81,11.81,0,0,1,89.09,34.27V0A0,0,0,0,1,89.09,0Z" />
            <path class="cls-5" d="M.19,46.08h0V30.78L12,19.27v15A11.81,11.81,0,0,1,.19,46.08Z" />
            <path class="cls-6" d="M162.42,0h0a11.86,11.86,0,0,1-11.85,11.85l-31,.15h0A11.86,11.86,0,0,1,131.44.14Z" />
            <path class="cls-7" d="M104.34,4.43V12h11.81V0h-8.09C106,0,104.34,2,104.34,4.43Z" />
            <polygon class="cls-8" points="104.34 15.44 104.34 34.43 116.15 46.08 116.15 15.44 104.34 15.44" />
            <polygon class="cls-9" points="0.19 30.79 37.54 30.87 37.54 19.06 11.99 18.98 0.19 30.79" />
            <polygon class="cls-10" points="0.19 25.95 0 0.01 11.81 0.01 11.99 14.14 0.19 25.95" />
            <path class="cls-11"
                d="M150.48,46.08a12,12,0,0,0,11.94-11.94V27.38h0a12,12,0,0,0-11.94-11.94H119.59v.18a11.8,11.8,0,0,0,11.81,11.8h15.15V25.48l6.35,5.37-6.35,5.36V34.3h-27L119.52,46l31,0Z" />
            <polygon class="cls-12" points="56.36 0 56.36 18.43 64.92 30.82 80.38 30.85 56.36 0" />
            <polygon class="cls-13" points="89.09 0 89.09 18.43 80.38 30.85 64.92 30.82 89.09 0" />
        </g>
    </g>
</svg>